#!OML:ASF E:\Steps\Project 1\Capture day 1\Session 2\Subject.ASF
:FULLY-SPECIFIED
:DEGREES
464
root 9.38784 16.1946 23.4861 -154.968 -1.66274 177.498
lowerback -27.0519 -1.63695 -5.11903
upperback -1.93771 -1.14636 -0.602924
thorax 12.9993 -1.06245 1.77166
lowerneck 2.20575 -2.9319 -0.204506
upperneck -8.66029 -4.09876 1.00751
head -3.12508 -2.16235 0.504129
rclavicle -9.64106e-015 -1.76918e-014
rhumerus -34.6972 -11.8825 -83.6518
rradius 34.2856
rwrist -2.58704
rhand -8.7218 -54.4098
rfingers 7.12502
rthumb 17.2142 -83.6673
lclavicle -9.64106e-015 -1.76918e-014
lhumerus -33.1236 -3.45406 85.8227
lradius 28.7952
lwrist -2.76185
lhand -20.6504 -12.5689
lfingers 7.12502
lthumb 5.7119 17.3341
rfemur -26.2072 9.22398 18.5877
rtibia 18.9218
rfoot -24.4119 -6.37063
rtoes -18.694
lfemur -28.3212 -11.2631 -19.6044
ltibia 23.0841
lfoot -15.2375 4.74549
ltoes -37.9146
465
root 9.38553 16.1985 23.4727 -154.996 -1.66843 177.455
lowerback -27.1663 -1.61911 -5.15384
upperback -1.87779 -1.09141 -0.659757
thorax 13.1269 -1.039 1.74407
lowerneck 2.08866 -2.99404 -0.156857
upperneck -8.82283 -4.18559 1.12265
head -3.15661 -2.21744 0.536368
rclavicle 3.08116e-015 1.55052e-014
rhumerus -34.6129 -12.0745 -83.6379
rradius 34.3125
rwrist -2.52128
rhand -8.61759 -54.3992
rfingers 7.12502
rthumb 17.3145 -83.6479
lclavicle 3.08116e-015 1.55052e-014
lhumerus -32.9056 -3.51382 85.7661
lradius 28.4994
lwrist -2.86074
lhand -20.9443 -12.6361
lfingers 7.12502
lthumb 5.42812 17.2743
rfemur -25.8722 9.19203 18.5431
rtibia 18.4346
rfoot -24.3069 -6.37363
rtoes -18.5255
lfemur -27.9731 -11.2117 -19.6911
ltibia 22.585
lfoot -15.1541 4.64468
ltoes -37.2257
466
root 9.385 16.2026 23.4632 -154.976 -1.66556 177.441
lowerback -27.2287 -1.62022 -5.20261
upperback -1.88691 -1.07705 -0.669974
thorax 13.149 -1.03697 1.7645
lowerneck 2.0572 -3.02393 -0.163231
upperneck -8.97793 -4.22975 1.21829
head -3.20135 -2.2476 0.571965
rclavicle 5.61567e-015 -2.74323e-014
rhumerus -34.5746 -12.2318 -83.5972
rradius 34.3257
rwrist -2.44734
rhand -8.58779 -53.9935
rfingers 7.12502
rthumb 17.3432 -83.2397
lclavicle 5.61567e-015 -2.74323e-014
lhumerus -32.7754 -3.54839 85.7542
lradius 28.1736
lwrist -2.9326
lhand -21.1361 -12.3413
lfingers 7.12502
lthumb 5.24294 17.5738
rfemur -25.7176 9.10654 18.5416
rtibia 18.1837
rfoot -24.2895 -6.3555
rtoes -18.5874
lfemur -27.7708 -11.158 -19.7165
ltibia 22.2073
lfoot -15.1068 4.61411
ltoes -37.5241
467
root 9.38416 16.2034 23.4557 -154.953 -1.69299 177.477
lowerback -27.2297 -1.63814 -5.22446
upperback -1.92466 -1.10589 -0.62444
thorax 13.1083 -1.0536 1.81889
lowerneck 2.05071 -2.98391 -0.257206
upperneck -9.03963 -4.18201 1.25357
head -3.21887 -2.22397 0.598892
rclavicle 5.41688e-015 2.68359e-014
rhumerus -34.4845 -12.3674 -83.5031
rradius 34.2285
rwrist -2.40678
rhand -8.39863 -53.6303
rfingers 7.12502
rthumb 17.5252 -82.8604
lclavicle 5.41688e-015 2.68359e-014
lhumerus -32.7337 -3.57359 85.7907
lradius 27.9434
lwrist -2.95999
lhand -21.2228 -12.1987
lfingers 7.12502
lthumb 5.15919 17.7185
rfemur -25.6547 9.0399 18.6028
rtibia 18.1045
rfoot -24.3538 -6.28895
rtoes -18.6071
lfemur -27.6493 -11.2237 -19.6635
ltibia 21.9305
lfoot -15.0002 4.86875
ltoes -38.5451
468
root 9.38444 16.2037 23.4477 -154.964 -1.75557 177.492
lowerback -27.1935 -1.66896 -5.29133
upperback -1.93728 -1.13477 -0.573033
thorax 13.0783 -1.07145 1.90656
lowerneck 2.02768 -2.94713 -0.363573
upperneck -9.11196 -4.14114 1.28101
head -3.23687 -2.20356 0.62551
rclavicle 4.52235e-015 3.02153e-014
rhumerus -34.3348 -12.5232 -83.3553
rradius 33.9887
rwrist -2.24131
rhand -8.15263 -53.1359
rfingers 7.12502
rthumb 17.762 -82.3447
lclavicle 4.52235e-015 3.02153e-014
lhumerus -32.6163 -3.46678 85.7616
lradius 27.6636
lwrist -3.12837
lhand -21.127 -12.2688
lfingers 7.12502
lthumb 5.25176 17.6461
rfemur -25.5073 9.039 18.6413
rtibia 17.9453
rfoot -24.3472 -6.33297
rtoes -18.8773
lfemur -27.5324 -11.2877 -19.6244
ltibia 21.7463
lfoot -14.9445 4.91724
ltoes -38.7132
469
root 9.38388 16.2034 23.4376 -154.962 -1.7056 177.385
lowerback -27.2123 -1.70394 -5.47276
upperback -1.94987 -1.12832 -0.576314
thorax 13.0757 -1.08059 2.00914
lowerneck 1.9644 -2.90801 -0.429306
upperneck -9.15685 -4.09736 1.28007
head -3.23939 -2.18189 0.634522
rclavicle -1.98785e-015 9.93923e-015
rhumerus -34.2024 -12.5697 -83.2797
rradius 33.7515
rwrist -2.06912
rhand -8.2394 -53.018
rfingers 7.12502
rthumb 17.6785 -82.2343
lclavicle -1.98785e-015 9.93923e-015
lhumerus -32.43 -3.25186 85.6616
lradius 27.2447
lwrist -3.30672
lhand -20.7688 -12.2485
lfingers 7.12502
lthumb 5.59756 17.6575
rfemur -25.3117 9.07204 18.4837
rtibia 17.6491
rfoot -24.2703 -6.30852
rtoes -18.7481
lfemur -27.4083 -11.2891 -19.7659
ltibia 21.6145
lfoot -14.9932 4.73458
ltoes -38.0893
470
root 9.37979 16.2024 23.4268 -154.922 -1.62408 177.35
lowerback -27.2822 -1.72375 -5.55758
upperback -1.99507 -1.13849 -0.552373
thorax 13.0623 -1.09413 2.08043
lowerneck 1.92487 -2.85872 -0.49498
upperneck -9.17564 -4.03655 1.28797
head -3.23742 -2.151 0.645863
rclavicle -2.13694e-015 1.39149e-015
rhumerus -34.0751 -12.5986 -83.2043
rradius 33.4667
rwrist -1.86866
rhand -8.34372 -53.3423
rfingers 7.12502
rthumb 17.5781 -82.5677
lclavicle -2.13694e-015 1.39149e-015
lhumerus -32.321 -2.81035 85.5484
lradius 26.8208
lwrist -3.58706
lhand -20.4135 -12.2719
lfingers 7.12502
lthumb 5.94064 17.6248
rfemur -25.154 9.05237 18.3936
rtibia 17.3201
rfoot -24.181 -6.12648
rtoes -18.1642
lfemur -27.3086 -11.2885 -19.8526
ltibia 21.4788
lfoot -15.087 4.69163
ltoes -37.7423
471
root 9.37523 16.2031 23.4178 -154.9 -1.65936 177.439
lowerback -27.321 -1.71096 -5.50369
upperback -2.02097 -1.14599 -0.506269
thorax 13.0532 -1.09679 2.09923
lowerneck 1.90183 -2.90139 -0.507581
upperneck -9.29837 -4.09569 1.38615
head -3.27243 -2.18758 0.683602
rclavicle -8.39865e-015 2.14687e-014
rhumerus -33.8437 -12.9146 -83.0275
rradius 32.9587
rwrist -1.51691
rhand -8.6454 -53.6688
rfingers 7.12502
rthumb 17.2878 -82.9199
lclavicle -8.39865e-015 2.14687e-014
lhumerus -32.129 -2.23401 85.3807
lradius 26.2961
lwrist -4.05907
lhand -20.2641 -12.6036
lfingers 7.12502
lthumb 6.08486 17.289
rfemur -25.0467 8.9351 18.5267
rtibia 17.1717
rfoot -24.106 -6.11503
rtoes -18.4597
lfemur -27.2474 -11.3069 -19.773
ltibia 21.3932
lfoot -15.1701 4.77661
ltoes -37.7386
472
root 9.37179 16.2049 23.4096 -154.946 -1.77477 177.481
lowerback -27.2881 -1.72052 -5.48033
upperback -2.02375 -1.16911 -0.479922
thorax 13.0344 -1.10547 2.10818
lowerneck 1.88979 -2.96696 -0.492602
upperneck -9.47579 -4.18828 1.47797
head -3.32883 -2.24307 0.71712
rclavicle -5.73991e-015 1.15295e-014
rhumerus -33.6282 -13.2914 -82.8341
rradius 32.4252
rwrist -1.16065
rhand -8.94321 -53.5886
rfingers 7.12502
rthumb 17.0011 -82.8646
lclavicle -5.73991e-015 1.15295e-014
lhumerus -31.7881 -1.65799 85.1412
lradius 25.5525
lwrist -4.48799
lhand -20.3651 -12.9719
lfingers 7.12502
lthumb 5.98732 16.9235
rfemur -24.8825 8.84519 18.6284
rtibia 17.1374
rfoot -24.1575 -6.16434
rtoes -18.5671
lfemur -27.1256 -11.3951 -19.7254
ltibia 21.3074
lfoot -15.1191 4.96668
ltoes -38.3592
473
root 9.3684 16.2059 23.4041 -154.948 -1.89551 177.526
lowerback -27.2896 -1.74474 -5.44932
upperback -2.0454 -1.21741 -0.444382
thorax 13.0139 -1.12676 2.11313
lowerneck 1.94371 -2.98118 -0.506845
upperneck -9.63987 -4.21262 1.53419
head -3.3942 -2.26095 0.743248
rclavicle -7.05686e-015 -3.97569e-016
rhumerus -33.5486 -13.4463 -82.7103
rradius 32.1421
rwrist -1.0388
rhand -9.11676 -53.5307
rfingers 7.12502
rthumb 16.834 -82.821
lclavicle -7.05686e-015 -3.97569e-016
lhumerus -31.5014 -1.16493 84.9344
lradius 24.897
lwrist -4.6089
lhand -20.5097 -12.7633
lfingers 7.12502
lthumb 5.84777 17.136
rfemur -24.8123 8.87215 18.6778
rtibia 17.1378
rfoot -24.2649 -6.14587
rtoes -17.8327
lfemur -27.0927 -11.4699 -19.652
ltibia 21.2688
lfoot -15.0556 5.01156
ltoes -38.6715
